<svg viewBox="0 0 24 24">
  <title>chart-question</title>
  <style>
    :host {
      --stroke: var(--tp-color-neutral-10);
      --stroke-width: 2;
    }

    :host {
      font-size: 24px;
      stroke: inherit;
    }

    :host path {
      stroke: var(--stroke);
      stroke-width: var(--stroke-width);
      fill: none;
      stroke-linecap: round;
      stroke-linejoin: round;
    }

    :host(.ion-color) path {
      --stroke: var(--ion-color-base) !important;
    }

    :host([tp-size='sm']) {
      /* --stroke-width: 1.5; */
      font-size: 16px;
    }

    :host([tp-size='md']) {
      /* --stroke-width: 3; */
      font-size: 32px;
    }

    :host([tp-size='lg']) {
      /* --stroke-width: 4; */
      font-size: 48px;
    }
  </style>
<path d="M20.0002 3.5H4.00018C2.89561 3.5 2.00018 4.39543 2.00018 5.5V15.5C2.00018 16.6046 2.89561 17.5 4.00018 17.5H9.00018V22L14.0002 17.5H20.0002C21.1048 17.5 22.0002 16.6046 22.0002 15.5V5.5C22.0002 4.39543 21.1048 3.5 20.0002 3.5Z"/>
<mask id="path-2-outside-1_14208_48805" maskUnits="userSpaceOnUse">
<rect/>
<path d="M10.9099 13.0044C10.9099 12.4521 11.3577 12.0044 11.9099 12.0044H11.9199C12.4722 12.0044 12.9199 12.4521 12.9199 13.0044C12.9199 13.5567 12.4722 14.0044 11.9199 14.0044H11.9099C11.3577 14.0044 10.9099 13.5567 10.9099 13.0044Z"/>
<path d="M12.1681 4.0288C11.7026 3.94895 11.2239 4.03643 10.8167 4.27574C10.4095 4.51506 10.1001 4.89077 9.94336 5.33632C9.76009 5.85731 9.18917 6.13108 8.66818 5.94781C8.1472 5.76454 7.87342 5.19362 8.05669 4.67263C8.37017 3.78152 8.9889 3.03011 9.8033 2.55148C10.6177 2.07285 11.5752 1.89789 12.5063 2.05758C13.4373 2.21728 14.2818 2.70133 14.8901 3.42401C15.4984 4.14653 15.8313 5.06096 15.83 6.00539C15.8296 7.53575 14.695 8.54637 13.8847 9.08653C13.4491 9.37695 13.0206 9.59049 12.7049 9.73079C12.5457 9.80157 12.4116 9.85528 12.3149 9.89209C12.2665 9.91053 12.2273 9.92482 12.1987 9.93497L12.164 9.94714L12.1529 9.95091L12.149 9.95223L12.1475 9.95274C12.1472 9.95284 12.1463 9.95316 11.83 9.00448L12.1463 9.95316C11.6223 10.1278 11.056 9.84465 10.8813 9.32071C10.7068 8.79711 10.9895 8.2312 11.5128 8.05614L11.5115 8.05657C11.5116 8.05654 11.5117 8.05652 11.5128 8.05614L11.5287 8.05054C11.5441 8.04507 11.5693 8.03593 11.6029 8.02311C11.6704 7.99743 11.7706 7.95739 11.8926 7.90317C12.1395 7.79346 12.461 7.63201 12.7753 7.42243C13.4649 6.96269 13.83 6.47361 13.83 6.00448L13.83 6.00299C13.8307 5.53067 13.6643 5.07334 13.3601 4.71201C13.0559 4.35067 12.6337 4.10864 12.1681 4.0288Z"/>
</mask>
<path d="M10.9099 13.0044C10.9099 12.4521 11.3577 12.0044 11.9099 12.0044H11.9199C12.4722 12.0044 12.9199 12.4521 12.9199 13.0044C12.9199 13.5567 12.4722 14.0044 11.9199 14.0044H11.9099C11.3577 14.0044 10.9099 13.5567 10.9099 13.0044Z"/>
<path d="M12.1681 4.0288C11.7026 3.94895 11.2239 4.03643 10.8167 4.27574C10.4095 4.51506 10.1001 4.89077 9.94336 5.33632C9.76009 5.85731 9.18917 6.13108 8.66818 5.94781C8.1472 5.76454 7.87342 5.19362 8.05669 4.67263C8.37017 3.78152 8.9889 3.03011 9.8033 2.55148C10.6177 2.07285 11.5752 1.89789 12.5063 2.05758C13.4373 2.21728 14.2818 2.70133 14.8901 3.42401C15.4984 4.14653 15.8313 5.06096 15.83 6.00539C15.8296 7.53575 14.695 8.54637 13.8847 9.08653C13.4491 9.37695 13.0206 9.59049 12.7049 9.73079C12.5457 9.80157 12.4116 9.85528 12.3149 9.89209C12.2665 9.91053 12.2273 9.92482 12.1987 9.93497L12.164 9.94714L12.1529 9.95091L12.149 9.95223L12.1475 9.95274C12.1472 9.95284 12.1463 9.95316 11.83 9.00448L12.1463 9.95316C11.6223 10.1278 11.056 9.84465 10.8813 9.32071C10.7068 8.79711 10.9895 8.2312 11.5128 8.05614L11.5115 8.05657C11.5116 8.05654 11.5117 8.05652 11.5128 8.05614L11.5287 8.05054C11.5441 8.04507 11.5693 8.03593 11.6029 8.02311C11.6704 7.99743 11.7706 7.95739 11.8926 7.90317C12.1395 7.79346 12.461 7.63201 12.7753 7.42243C13.4649 6.96269 13.83 6.47361 13.83 6.00448L13.83 6.00299C13.8307 5.53067 13.6643 5.07334 13.3601 4.71201C13.0559 4.35067 12.6337 4.10864 12.1681 4.0288Z"/>
<path d="M12.1681 4.0288L11.83 6.00001H11.83L12.1681 4.0288ZM10.8167 4.27574L11.83 6.00001L11.83 6.00001L10.8167 4.27574ZM9.94336 5.33632L11.83 6.00001H11.83L9.94336 5.33632ZM8.66818 5.94781L8.0045 7.83448H8.0045L8.66818 5.94781ZM8.05669 4.67263L9.94336 5.33632V5.33632L8.05669 4.67263ZM9.8033 2.55148L8.78993 0.827213L8.78993 0.827213L9.8033 2.55148ZM12.5063 2.05758L12.8444 0.0863714L12.5063 2.05758ZM14.8901 3.42401L13.3601 4.71201L13.3601 4.71201L14.8901 3.42401ZM15.83 6.00539L13.83 6.0027L13.83 6.0048L15.83 6.00539ZM13.8847 9.08653L14.9941 10.7506H14.9941L13.8847 9.08653ZM12.7049 9.73079L13.5172 11.5584L12.7049 9.73079ZM12.3149 9.89209L13.0269 11.7611H13.0269L12.3149 9.89209ZM12.1987 9.93497L12.8598 11.8226L12.8687 11.8194L12.1987 9.93497ZM12.164 9.94714L12.8104 11.8398C12.8153 11.8381 12.8202 11.8364 12.8251 11.8347L12.164 9.94714ZM12.1529 9.95091L12.7921 11.8461L12.7993 11.8436L12.1529 9.95091ZM12.149 9.95223L12.7852 11.8484L12.7882 11.8474L12.149 9.95223ZM12.1475 9.95274L12.7782 11.8507L12.7837 11.8489L12.1475 9.95274ZM13.7274 8.37202C13.3781 7.32414 12.2455 6.75782 11.1976 7.10711C10.1497 7.45641 9.58337 8.58905 9.93266 9.63693L13.7274 8.37202ZM12.1463 9.95316L12.7787 11.8505C13.8266 11.5012 14.3929 10.3686 14.0436 9.32071L12.1463 9.95316ZM10.8813 9.32071L12.7787 8.68825L12.7787 8.68825L10.8813 9.32071ZM11.5128 8.05614L12.1638 9.94725L12.175 9.9433L11.5128 8.05614ZM11.5115 8.05657L10.8697 6.16235C9.82454 6.51647 9.26369 7.65015 9.61637 8.69577C9.96905 9.74139 11.102 10.3038 12.1481 9.95256L11.5115 8.05657ZM11.5287 8.05054L12.191 9.93772L12.1987 9.93497L11.5287 8.05054ZM11.6029 8.02311L10.891 6.15414L10.8909 6.15414L11.6029 8.02311ZM11.8926 7.90317L11.0804 6.07554L11.0804 6.07554L11.8926 7.90317ZM12.7753 7.42243L11.6659 5.75833L11.6659 5.75833L12.7753 7.42243ZM13.83 6.00448L11.83 6.0032V6.00448H13.83ZM13.83 6.00299L11.83 6.00001L11.83 6.00171L13.83 6.00299ZM12.9099 13.0044C12.9099 13.5567 12.4622 14.0044 11.9099 14.0044V10.0044C10.2531 10.0044 8.90994 11.3475 8.90994 13.0044H12.9099ZM11.9099 14.0044H11.9199V10.0044H11.9099V14.0044ZM11.9199 14.0044C11.3677 14.0044 10.9199 13.5567 10.9199 13.0044H14.9199C14.9199 11.3475 13.5768 10.0044 11.9199 10.0044V14.0044ZM10.9199 13.0044C10.9199 12.4521 11.3677 12.0044 11.9199 12.0044V16.0044C13.5768 16.0044 14.9199 14.6613 14.9199 13.0044H10.9199ZM11.9199 12.0044H11.9099V16.0044H11.9199V12.0044ZM11.9099 12.0044C12.4622 12.0044 12.9099 12.4521 12.9099 13.0044H8.90994C8.90994 14.6613 10.2531 16.0044 11.9099 16.0044V12.0044ZM12.5063 2.05758C11.5752 1.89789 10.6177 2.07285 9.8033 2.55148L11.83 6.00001H11.83L12.5063 2.05758ZM9.8033 2.55148C8.9889 3.03011 8.37017 3.78153 8.05669 4.67263L11.83 6.00001H11.83L9.8033 2.55148ZM8.05669 4.67263C8.23997 4.15164 8.81088 3.87787 9.33187 4.06114L8.0045 7.83448C9.56747 8.3843 11.2802 7.56298 11.83 6.00001L8.05669 4.67263ZM9.33187 4.06114C9.85286 4.24442 10.1266 4.81533 9.94336 5.33632L6.17003 4.00895C5.62021 5.57192 6.44153 7.28467 8.0045 7.83448L9.33187 4.06114ZM9.94336 5.33632C10.1001 4.89077 10.4095 4.51506 10.8167 4.27574L8.78993 0.827213C7.56833 1.54516 6.64023 2.67228 6.17002 4.00895L9.94336 5.33632ZM10.8167 4.27574C11.2239 4.03643 11.7026 3.94895 12.1681 4.0288L12.8444 0.0863714C11.4478 -0.153176 10.0115 0.109265 8.78993 0.827213L10.8167 4.27574ZM12.1681 4.0288C12.6337 4.10865 13.0559 4.35067 13.3601 4.71201L16.4202 2.136C15.5077 1.052 14.2409 0.325919 12.8444 0.0863714L12.1681 4.0288ZM13.3601 4.71201C13.6642 5.07327 13.8307 5.53048 13.83 6.0027L17.83 6.00808C17.8319 4.59143 17.3325 3.21979 16.4202 2.136L13.3601 4.71201ZM13.83 6.0048C13.83 6.2426 13.7499 6.46643 13.5631 6.71451C13.3626 6.98093 13.0749 7.22274 12.7753 7.42243L14.9941 10.7506C15.9199 10.1334 17.8293 8.60118 17.83 6.00598L13.83 6.0048ZM12.7753 7.42243C12.4609 7.63202 12.1394 7.79348 11.8926 7.90317L13.5172 11.5584C13.9017 11.3875 14.4373 11.1219 14.9941 10.7506L12.7753 7.42243ZM11.8926 7.90317C11.7706 7.95739 11.6704 7.99743 11.6029 8.02311L13.0269 11.7611C13.1528 11.7131 13.3207 11.6458 13.5172 11.5584L11.8926 7.90317ZM11.6029 8.02311C11.5693 8.03593 11.5441 8.04507 11.5287 8.05054L12.8687 11.8194C12.9105 11.8046 12.9638 11.7851 13.0269 11.7611L11.6029 8.02311ZM11.5377 8.04739L11.5029 8.05955L12.8251 11.8347L12.8598 11.8226L11.5377 8.04739ZM11.5176 8.05447L11.5065 8.05825L12.7993 11.8436L12.8104 11.8398L11.5176 8.05447ZM11.5138 8.05579L11.5099 8.0571L12.7882 11.8474L12.7921 11.846L11.5138 8.05579ZM11.5129 8.0561L11.5113 8.05662L12.7837 11.8489L12.7852 11.8484L11.5129 8.0561ZM11.5169 8.05478C11.5068 8.05812 12.0706 7.83288 12.7452 8.04415C13.3168 8.22317 13.6262 8.59934 13.7105 8.7049C13.8211 8.84352 13.8876 8.96569 13.9101 9.00761C13.9397 9.06297 13.9606 9.10825 13.9711 9.13164C13.9923 9.17856 14.0068 9.21593 14.0112 9.22731C14.0175 9.24347 14.0222 9.25624 14.0246 9.26261C14.0319 9.28268 14.0368 9.29719 14.0339 9.28876C14.0312 9.28085 14.0231 9.25685 14.0031 9.19754C13.9641 9.08145 13.8855 8.84628 13.7274 8.37202L9.93266 9.63693C10.0908 10.1114 10.1707 10.3504 10.2113 10.4713C10.2312 10.5305 10.2431 10.5656 10.2506 10.5873C10.2527 10.5936 10.2602 10.6155 10.2689 10.6393C10.2716 10.6465 10.2766 10.66 10.2831 10.6767C10.2877 10.6886 10.3024 10.7263 10.3236 10.7734C10.3342 10.7969 10.3551 10.8423 10.3848 10.8977C10.4073 10.9397 10.4738 11.0619 10.5845 11.2005C10.6688 11.3061 10.9782 11.6823 11.5498 11.8613C12.2244 12.0726 12.7882 11.8474 12.7782 11.8507L11.5169 8.05478ZM9.93266 9.63693L10.2489 10.5856L14.0436 9.32071L13.7274 8.37202L9.93266 9.63693ZM11.5138 8.05579C12.0377 7.88115 12.6041 8.16431 12.7787 8.68825L8.98398 9.95316C9.50792 11.525 11.2069 12.3745 12.7787 11.8505L11.5138 8.05579ZM12.7787 8.68825C12.9532 9.21186 12.6706 9.77776 12.1473 9.95283L10.8783 6.15946C9.30838 6.68463 8.46038 8.38236 8.98398 9.95316L12.7787 8.68825ZM10.8762 6.16016L10.8749 6.16059L12.1481 9.95256L12.1493 9.95213L10.8762 6.16016ZM12.1533 9.9508C12.1392 9.95557 12.128 9.95919 12.1222 9.96104C12.1195 9.9619 12.1174 9.96257 12.1169 9.96272C12.1167 9.96281 12.1164 9.9629 12.1165 9.96285C12.1166 9.96284 12.1169 9.96275 12.1172 9.96264C12.119 9.96208 12.122 9.96112 12.1257 9.95992C12.1294 9.95874 12.1329 9.95759 12.1363 9.95646C12.143 9.95426 12.1487 9.95235 12.153 9.9509C12.1573 9.94945 12.161 9.94819 12.1638 9.94721L10.8617 6.16507C10.864 6.16429 10.8673 6.16317 10.8712 6.16183C10.8752 6.16049 10.8806 6.15866 10.8872 6.15651C10.8905 6.15541 10.894 6.15428 10.8976 6.15313C10.9012 6.15194 10.9042 6.151 10.9059 6.15045C10.9063 6.15034 10.9065 6.15025 10.9066 6.15024C10.9067 6.1502 10.9064 6.15029 10.9061 6.15038C10.9056 6.15054 10.9035 6.15121 10.9008 6.15208C10.895 6.15394 10.8838 6.15757 10.8697 6.16235L12.1533 9.9508ZM12.175 9.9433L12.191 9.9377L10.8664 6.16338L10.8505 6.16898L12.175 9.9433ZM12.1987 9.93497C12.2273 9.92482 12.2665 9.91053 12.3149 9.89209L10.8909 6.15414C10.8721 6.16133 10.8609 6.16533 10.8587 6.16612L12.1987 9.93497ZM12.3149 9.89209C12.4116 9.85528 12.5457 9.80157 12.7049 9.73079L11.0804 6.07554C10.9956 6.11321 10.9292 6.13958 10.891 6.15414L12.3149 9.89209ZM12.7049 9.73079C13.0205 9.59052 13.4491 9.37697 13.8847 9.08653L11.6659 5.75833C11.4729 5.88704 11.2584 5.9964 11.0804 6.07554L12.7049 9.73079ZM13.8847 9.08653C14.7064 8.53876 15.83 7.52779 15.83 6.00448H11.83C11.83 5.69935 11.9516 5.52996 11.9571 5.52262C11.9606 5.51791 11.9446 5.54006 11.8947 5.58489C11.8453 5.62921 11.7713 5.68811 11.6659 5.75833L13.8847 9.08653ZM15.83 6.00576L15.83 6.00427L11.83 6.00171L11.83 6.0032L15.83 6.00576ZM15.83 6.00597C15.8314 5.06133 15.4985 4.14668 14.8901 3.42401L11.83 6.00001L11.83 6.00001L15.83 6.00597ZM14.8901 3.42401C14.2818 2.70133 13.4373 2.21728 12.5063 2.05758L11.83 6.00001H11.83L14.8901 3.42401Z" mask="url(#path-2-outside-1_14208_48805)"/>
</svg>
