<svg viewBox="0 0 24 24">
  <title>filter-2</title>
  <style>
    :host {
      --stroke: var(--tp-color-neutral-10);
      --stroke-width: 2;
    }

    :host {
      font-size: 24px;
      stroke: inherit;
    }

    :host path {
      stroke: var(--stroke);
      stroke-width: var(--stroke-width);
      fill: none;
      stroke-linecap: round;
      stroke-linejoin: round;
    }

    :host(.ion-color) path {
      --stroke: var(--ion-color-base) !important;
    }

    :host([tp-size='sm']) {
      /* --stroke-width: 1.5; */
      font-size: 16px;
    }

    :host([tp-size='md']) {
      /* --stroke-width: 3; */
      font-size: 32px;
    }

    :host([tp-size='lg']) {
      /* --stroke-width: 4; */
      font-size: 48px;
    }
  </style>
  <path d="M6 18C3.79086 18 2 16.2091 2 14C2 11.7909 3.79086 10 6 10M6 18C8.20914 18 10 16.2091 10 14C10 11.7909 8.20914 10 6 10M6 18L6 22M6 10L6 2M18 14C15.7909 14 14 12.2091 14 10C14 7.79086 15.7909 6 18 6M18 14C20.2091 14 22 12.2091 22 10C22 7.79086 20.2091 6 18 6M18 14V22M18 6V2"/>
</svg>
